<svg width="433" height="56" viewBox="0 0 433 56" fill="none" xmlns="http://www.w3.org/2000/svg">
<rect width="433" height="56" rx="8" fill="#F5F5F5"/>
<path d="M36 36L32.2223 32.2156M34.3158 27.1579C34.3158 29.0563 33.5617 30.8769 32.2193 32.2193C30.8769 33.5617 29.0563 34.3158 27.1579 34.3158C25.2595 34.3158 23.4389 33.5617 22.0965 32.2193C20.7541 30.8769 20 29.0563 20 27.1579C20 25.2595 20.7541 23.4389 22.0965 22.0965C23.4389 20.7541 25.2595 20 27.1579 20C29.0563 20 30.8769 20.7541 32.2193 22.0965C33.5617 23.4389 34.3158 25.2595 34.3158 27.1579V27.1579Z" stroke="#989898" stroke-width="1.5" stroke-linecap="round"/>
<path opacity="0.5" d="M52.2725 33.1641C50.0576 33.1641 48.5947 32.1113 48.4717 30.375L48.4648 30.2725H49.9551L49.9688 30.3613C50.1055 31.2705 51.0146 31.8379 52.334 31.8379C53.6533 31.8379 54.4873 31.2432 54.4873 30.3203V30.3135C54.4873 29.5205 53.9473 29.0898 52.6416 28.8027L51.5684 28.5771C49.6338 28.167 48.6973 27.2783 48.6973 25.8154V25.8086C48.7041 24.127 50.1875 22.9717 52.2725 22.9717C54.3301 22.9717 55.7383 24.0928 55.8408 25.7471L55.8477 25.8633H54.3574L54.3506 25.7676C54.2139 24.8516 53.4209 24.2979 52.252 24.2979C51.0283 24.3047 50.249 24.8857 50.249 25.7471V25.7539C50.249 26.4922 50.8096 26.9434 52.04 27.21L53.1201 27.4355C55.1572 27.8662 56.0322 28.6934 56.0322 30.2178V30.2246C56.0322 32.0225 54.6104 33.1641 52.2725 33.1641ZM60.3047 33.1436C58.1924 33.1436 56.9141 31.7012 56.9141 29.4316V29.4248C56.9141 27.1758 58.2129 25.6719 60.2295 25.6719C62.2461 25.6719 63.4834 27.1211 63.4834 29.2812V29.7803H58.3906C58.418 31.1406 59.1631 31.9336 60.3389 31.9336C61.2139 31.9336 61.7949 31.4824 61.9795 30.9424L62 30.8877H63.4014L63.3877 30.9629C63.1553 32.1045 62.0479 33.1436 60.3047 33.1436ZM60.2363 26.8818C59.2793 26.8818 58.541 27.5312 58.4111 28.7344H62.0205C61.8975 27.4902 61.2002 26.8818 60.2363 26.8818ZM66.7441 33.1299C65.3086 33.1299 64.3447 32.248 64.3447 30.9561V30.9424C64.3447 29.6914 65.3154 28.9258 67.0176 28.8232L68.9727 28.707V28.167C68.9727 27.374 68.46 26.8955 67.5439 26.8955C66.6895 26.8955 66.1631 27.2988 66.04 27.873L66.0264 27.9346H64.6318L64.6387 27.8594C64.7412 26.6221 65.8145 25.6719 67.585 25.6719C69.3418 25.6719 70.4561 26.6016 70.4561 28.0439V33H68.9727V31.8652H68.9453C68.5283 32.6377 67.6943 33.1299 66.7441 33.1299ZM65.835 30.9219C65.835 31.5508 66.3545 31.9473 67.1475 31.9473C68.1865 31.9473 68.9727 31.2432 68.9727 30.3066V29.7461L67.2158 29.8555C66.3271 29.9102 65.835 30.2998 65.835 30.9082V30.9219ZM71.8916 33V25.8086H73.3682V27.0391H73.4023C73.6348 26.1982 74.2363 25.6719 75.0566 25.6719C75.2686 25.6719 75.4531 25.7061 75.5693 25.7266V27.1006C75.4531 27.0527 75.1934 27.0186 74.9062 27.0186C73.9561 27.0186 73.3682 27.6406 73.3682 28.7139V33H71.8916ZM79.2607 33.1436C77.1621 33.1436 75.8496 31.7012 75.8496 29.3975V29.3906C75.8496 27.1143 77.1895 25.6719 79.2402 25.6719C81.0928 25.6719 82.2139 26.8613 82.3369 28.2148L82.3438 28.2627H80.9355L80.9219 28.208C80.7646 27.5039 80.2178 26.9092 79.2539 26.9092C78.1055 26.9092 77.3604 27.8662 77.3604 29.4043V29.4111C77.3604 30.9834 78.1191 31.9062 79.2607 31.9062C80.1699 31.9062 80.751 31.3799 80.9287 30.6006L80.9355 30.5459H82.3574L82.3506 30.5938C82.1934 32.0361 80.9902 33.1436 79.2607 33.1436ZM83.458 33V23.1357H84.9346V26.9912H84.9688C85.3516 26.1572 86.124 25.6719 87.1973 25.6719C88.7354 25.6719 89.7471 26.8203 89.7471 28.5566V33H88.2705V28.8369C88.2705 27.6475 87.6689 26.9365 86.6299 26.9365C85.6113 26.9365 84.9346 27.7158 84.9346 28.8369V33H83.458Z" fill="#656565"/>
</svg>
