<svg width="19" height="19" viewBox="0 0 19 19" fill="none" xmlns="http://www.w3.org/2000/svg">
<path d="M7.84848 1.35577C8.46763 0.0270975 10.3568 0.0270965 10.976 1.35577L12.4149 4.4436C12.6663 4.98311 13.178 5.35492 13.7688 5.4273L17.1502 5.84158C18.6051 6.01983 19.1889 7.81657 18.1166 8.816L15.6245 11.1387C15.1891 11.5445 14.9937 12.1461 15.1074 12.7303L15.7583 16.0742C16.0384 17.513 14.51 18.6235 13.2281 17.9125L10.249 16.2601C9.72851 15.9714 9.09595 15.9714 8.57545 16.2601L5.59638 17.9125C4.31451 18.6235 2.78611 17.513 3.06618 16.0742L3.71708 12.7303C3.8308 12.1461 3.63533 11.5445 3.19992 11.1387L0.707856 8.816C-0.364461 7.81657 0.219334 6.01983 1.6743 5.84158L5.05565 5.4273C5.64644 5.35492 6.15819 4.98311 6.4096 4.4436L7.84848 1.35577Z" fill="#FFB547"/>
</svg>
