<svg width="19" height="19" viewBox="0 0 19 19" fill="none" xmlns="http://www.w3.org/2000/svg">
<path d="M7.98588 1.35577C8.60502 0.0270975 10.4942 0.0270965 11.1134 1.35577L12.5523 4.4436C12.8037 4.98311 13.3154 5.35492 13.9062 5.4273L17.2875 5.84158C18.7425 6.01983 19.3263 7.81657 18.254 8.816L15.7619 11.1387C15.3265 11.5445 15.131 12.1461 15.2448 12.7303L15.8957 16.0742C16.1757 17.513 14.6473 18.6235 13.3655 17.9125L10.3864 16.2601C9.8659 15.9714 9.23334 15.9714 8.71284 16.2601L5.73377 17.9125C4.4519 18.6235 2.9235 17.513 3.20357 16.0742L3.85447 12.7303C3.96819 12.1461 3.77272 11.5445 3.33731 11.1387L0.845246 8.816C-0.227071 7.81657 0.356725 6.01983 1.81169 5.84158L5.19304 5.4273C5.78383 5.35492 6.29558 4.98311 6.54699 4.4436L7.98588 1.35577Z" fill="#FFB547"/>
</svg>
