<svg width="19" height="19" viewBox="0 0 19 19" fill="none" xmlns="http://www.w3.org/2000/svg">
<path d="M7.71103 1.35577C8.33018 0.0270975 10.2194 0.0270965 10.8385 1.35577L12.2774 4.4436C12.5288 4.98311 13.0406 5.35492 13.6314 5.4273L17.0127 5.84158C18.4677 6.01983 19.0515 7.81657 17.9792 8.816L15.4871 11.1387C15.0517 11.5445 14.8562 12.1461 14.9699 12.7303L15.6208 16.0742C15.9009 17.513 14.3725 18.6235 13.0906 17.9125L10.1116 16.2601C9.59106 15.9714 8.9585 15.9714 8.43799 16.2601L5.45893 17.9125C4.17705 18.6235 2.64866 17.513 2.92873 16.0742L3.57963 12.7303C3.69335 12.1461 3.49788 11.5445 3.06247 11.1387L0.570405 8.816C-0.501912 7.81657 0.0818832 6.01983 1.53685 5.84158L4.9182 5.4273C5.50899 5.35492 6.02074 4.98311 6.27215 4.4436L7.71103 1.35577Z" fill="#FFB547"/>
</svg>
