<svg width="20" height="19" viewBox="0 0 20 19" fill="none" xmlns="http://www.w3.org/2000/svg">
<path d="M8.57364 1.35577C9.19279 0.0270975 11.082 0.0270965 11.7011 1.35577L13.14 4.4436C13.3914 4.98311 13.9032 5.35492 14.494 5.4273L17.8753 5.84158C19.3303 6.01983 19.9141 7.81657 18.8418 8.816L16.3497 11.1387C15.9143 11.5445 15.7188 12.1461 15.8325 12.7303L16.4834 16.0742C16.7635 17.513 15.2351 18.6235 13.9532 17.9125L10.9742 16.2601C10.4537 15.9714 9.82111 15.9714 9.3006 16.2601L6.32154 17.9125C5.03966 18.6235 3.51127 17.513 3.79134 16.0742L4.44224 12.7303C4.55596 12.1461 4.36049 11.5445 3.92508 11.1387L1.43301 8.816C0.360698 7.81657 0.944493 6.01983 2.39946 5.84158L5.78081 5.4273C6.3716 5.35492 6.88335 4.98311 7.13476 4.4436L8.57364 1.35577Z" fill="#FFB547"/>
</svg>
